<svg id="Livello_1" data-name="Livello 1" xmlns="http://www.w3.org/2000/svg" viewBox="0 0 276.47 226.07"><defs><style>.cls-1{fill:#096998;}.cls-2{fill:#1d1d1b;}</style></defs><title>host</title><path class="cls-1" d="M1129.05,348c-6.32,8.82-11.72,16.54-17.4,24.05a6.52,6.52,0,0,1-4.65,2q-92.9.14-185.78,0a11.83,11.83,0,0,1-1.89-.53c3.79-5.4,7.89-10.29,10.9-15.78,4.56-8.33,11-10.13,20.24-10.05,57.11.47,114.22.23,171.34.23Z" transform="translate(-916.29 -158.44)"/><path class="cls-1" d="M1037,169.47c26.9,0,53.8.13,80.7-.11,5.13-.05,6.45,1.6,6.42,6.55-.17,39-.09,78.07-.1,117.1,0,6.47,0,6.49-6.73,6.49H956.35c-6.5,0-6.52,0-6.52-6.65q0-58.31,0-116.6c0-6.76,0-6.78,6.93-6.78Zm-1.19,122.85c20.75,0,41.52-.45,62.26.19,9.62.3,18.33-6.38,18.36-17.7.09-26.07.22-52.15-.06-78.23-.12-11-6.31-17.57-17.15-17.85-21.57-.55-43.15-.47-64.73-.45-20.75,0-41.5.1-62.24.52-9.22.19-15.88,7.07-15.94,16.35q-.28,40.62,0,81.22c.09,9.62,7.13,15.92,16.71,15.93Q1004.38,292.34,1035.77,292.32Z" transform="translate(-916.29 -158.44)"/><path class="cls-1" d="M1129.39,294.89V204.05c0-10.47.14-20.94-.07-31.4-.08-3.51,1.09-5.6,4.27-7,3.45-1.46,6.79-3.18,11.11-5.23v6.76c0,35.56,0,71.12.07,106.67,0,4.55-.45,8.21-4.71,11.09C1136.41,287.46,1133.49,291,1129.39,294.89Z" transform="translate(-916.29 -158.44)"/><path class="cls-1" d="M952.67,319.39c3.7-3.88,6.67-7,9.61-10.11,2-2.16,3.81-2.16,6.52-.67,3,1.66,6.65,3.11,10,3.12,45.82.2,91.65.14,137.48.12,3.12,0,5.55.18,7.87-3.71,3-5.09,8.4-8.8,12.88-13,.71-.67,2-.67,3.66-.17-3.94,4.08-8.43,7.77-11.72,12.32-7.48,10.39-17.23,12.55-29.64,12.36-46.81-.72-93.64-.29-140.47-.29Z" transform="translate(-916.29 -158.44)"/><path class="cls-1" d="M1035.45,334.18h63.79c2.84,0,5.67-.52,5.71,4s-2.58,4.61-5.82,4.6q-63.78,0-127.57,0c-3.34,0-5.77-.24-5.68-4.71.09-4.15,2.5-3.92,5.29-3.92Q1003.3,334.2,1035.45,334.18Z" transform="translate(-916.29 -158.44)"/><path class="cls-1" d="M1012.44,384.25H922.28a13.83,13.83,0,0,1-4.43-.29,3.41,3.41,0,0,1-1.56-2.59,2.75,2.75,0,0,1,1.58-2.08,13.55,13.55,0,0,1,3.94-.23h181.32a13.21,13.21,0,0,1,3.94.25,2.72,2.72,0,0,1,1.56,2.09A3.47,3.47,0,0,1,1107,384a14.12,14.12,0,0,1-4.43.28Z" transform="translate(-916.29 -158.44)"/><path class="cls-1" d="M1031.93,329.51H956.27c-1.33,0-2.8.34-3.95-.13s-2.18-1.76-3.24-2.7a15.61,15.61,0,0,1,3.06-2.37c.82-.38,2-.08,3-.08h153.83c1.16,0,2.45-.29,3.44.13s2.36,1.54,2.39,2.39-1.24,2.2-2.21,2.54c-1.34.46-3,.21-4.44.21Z" transform="translate(-916.29 -158.44)"/><path class="cls-1" d="M971.18,164c17-7.05,35.81-5.38,54.47-5.4q55,0,110,0l.45,1.52c-4.79,1.3-9.58,3.69-14.38,3.72C1071.28,164.1,1020.84,164,971.18,164Z" transform="translate(-916.29 -158.44)"/><path class="cls-1" d="M1141.66,376.14c3.45-6.9,6.47-13.07,9.66-19.15a3.83,3.83,0,0,1,2.69-1.85c7.22-.15,14.44-.08,22.64-.08-3.47,7-6.46,13.19-9.63,19.28a3.73,3.73,0,0,1-2.74,1.72C1157.05,376.21,1149.81,376.14,1141.66,376.14Z" transform="translate(-916.29 -158.44)"/><path class="cls-2" d="M1164.6,346l3.39,4.16c-3.56,1.21-6-.22-6.15-3.11-.11-1.63,1.88-4.32,3.53-5,4.72-1.87,9.88-2.65,14.63-4.46,2.7-1,5.11-3,7.34-5,3.76-3.25,3.32-6.36-1.7-7.92a133.15,133.15,0,0,0-21.2-4.87c-8.65-1.22-17.42-1.51-26.57-3.35.85-.53,1.73-1.56,2.55-1.51,14,.85,28.28.1,41.82,4.77,4.49,1.55,10.31,2.35,10.51,8.86s-5.22,8.87-9.77,11.31c-3.44,1.84-7.46,2.6-11.23,3.82C1169.57,344.47,1167.37,345.14,1164.6,346Z" transform="translate(-916.29 -158.44)"/><path class="cls-1" d="M1114.39,378.81c.25-5.44,5-8.4,7.61-12.56,2.66-4.34,5.92-8.32,9.16-12.79,1.41,6.3.08,11-4.66,15.19-3.89,3.41-7.09,7.64-10.59,11.5Z" transform="translate(-916.29 -158.44)"/><path class="cls-1" d="M1119.55,323.87l24-24.87,1.16.69c-.56,1.3-.83,2.9-1.75,3.87-7.07,7.43-14.26,14.74-21.41,22.08Z" transform="translate(-916.29 -158.44)"/><path class="cls-1" d="M1134.82,320.11c-2.14,2.39-3.4,3.95-4.81,5.36-5,5-10,10.12-15.16,15-1.06,1-3,1-4.57,1.52-.18-2.08-.74-4.24-.33-6.19.14-.7,3.2-1.73,4-1.21,3.69,2.53,5.32-.48,7.39-2.29C1125.49,328.57,1129.61,324.8,1134.82,320.11Z" transform="translate(-916.29 -158.44)"/><path class="cls-1" d="M1140.66,382a108.59,108.59,0,0,1,25.55-.49C1162.27,385.29,1144.5,385.53,1140.66,382Z" transform="translate(-916.29 -158.44)"/><path class="cls-1" d="M1178.09,363.11c1.69,7.45-3.51,10.84-7.52,14.83Z" transform="translate(-916.29 -158.44)"/><path class="cls-1" d="M1036.26,288.41c-19.59,0-39.18-.15-58.77.07-9.16.11-17.15-4.3-16.87-16.53.55-24.4.13-48.82.17-73.23,0-11.19,4.11-15.24,15.38-15.25q60,0,120,0c11.35,0,15.51,4.27,15.52,15.7,0,24.41-.37,48.82.17,73.22.23,10.24-6.68,16.2-16.36,16.09C1075.77,288.26,1056,288.41,1036.26,288.41Z" transform="translate(-916.29 -158.44)"/></svg>