<svg id="Livello_1" data-name="Livello 1" xmlns="http://www.w3.org/2000/svg" viewBox="0 0 276.21 134.16"><defs><style>.cls-1{fill:#096998;}.cls-2{fill:#f7fafc;}.cls-3{fill:#f8fbfc;}.cls-4{fill:#fbfcfd;}.cls-5{fill:#fefeff;}</style></defs><title>switch</title><path class="cls-1" d="M588,426.88c-32.35,0-64.71-.07-97.06.08-4.09,0-5.68-.58-5.6-5.29.33-18.57.22-37.16.06-55.74,0-3.39.78-4.51,4.36-4.5q98.79.17,197.6,0c3,0,4.33.56,4.3,4q-.25,28.62,0,57.24c0,3.76-1.4,4.22-4.62,4.21C654,426.84,621,426.88,588,426.88Z" transform="translate(-485.3 -292.92)"/><path class="cls-1" d="M487.42,359c14.91-12.18,29-23.72,43.09-35.19,11.69-9.5,23.47-18.89,35.13-28.43a9.92,9.92,0,0,1,6.73-2.5q91.33.09,182.68.05c1,0,1.91.09,3.39.16-3,5.18-7.42,8.16-11.06,11.78-17.7,17.62-35.75,34.9-53.56,52.41a6.68,6.68,0,0,1-5.28,1.92q-99.06,0-198.12,0C489.79,359.22,489.15,359.15,487.42,359Z" transform="translate(-485.3 -292.92)"/><path class="cls-1" d="M761.15,295c0,15.49-.78,29.91.25,44.19.81,11.31-3.22,19-11.09,26.72-12.27,12-23.31,25.23-34.95,37.87-6.88,7.48-13.91,14.84-21.84,23.28V421c0-18.74,0-37.49,0-56.23a8.19,8.19,0,0,1,2.59-6.53q29.61-28.71,59-57.58C756.76,299,758.49,297.48,761.15,295Z" transform="translate(-485.3 -292.92)"/><path class="cls-2" d="M645.87,316.6c-1.85,3.9-4.45,3.87-7.15,3.86q-21.88-.06-43.77,0c-1.48,0-3.15-.16-4.39.45-8,3.95-9.94,3.87-17.75-1.67,8.44-3.53,17.27-4.54,25.61-7.6.4,2.47-2.23,2.72-2.18,5Z" transform="translate(-485.3 -292.92)"/><path class="cls-3" d="M605.49,342.34a8.13,8.13,0,0,1-7.6,3.85c-14.6-.1-29.21-.06-43.81,0-1.48,0-3.63-.35-4.32.45-6.72,7.75-12,.3-17.85-1.28,8.32-3.74,17.12-5.42,25.85-7.94-.14,2.27-2.52,2.71-3.1,4.95Z" transform="translate(-485.3 -292.92)"/><path class="cls-4" d="M689.86,313.46c.9-2.15,3-3.15,3.24-5.65H644.2c.91-3.6,3.5-3.14,5.8-3.14,14.73,0,29.46,0,44.18,0,1.94,0,4.25.58,5.43-1.51,2.68-4.76,5.94-3.16,9.44-1.22,2.24,1.24,4.61,2.26,7.69,3.75Z" transform="translate(-485.3 -292.92)"/><path class="cls-5" d="M689.6,331.19l-25.52,7.6c-.7-2.59,2.2-3.09,2-5.26H616.14c1.61-3.2,4.15-3.13,6.73-3.12q22.11,0,44.23,0c2,0,4.11.44,5.41-1.58,2.55-4,5.62-3.6,9.19-1.45C684,328.72,686.43,329.68,689.6,331.19Z" transform="translate(-485.3 -292.92)"/></svg>